<?xml version="1.0"?>
<svg width="640" height="480" xmlns="http://www.w3.org/2000/svg" xmlns:svg="http://www.w3.org/2000/svg">
 <!-- Created with SVG-edit - http://svg-edit.googlecode.com/ -->
 <g>
  <title>Layer 1</title>
  <path d="m219,134c0.97467,1.846664 1.044998,2.695358 1.286667,3.686661c0.137955,0.565842 0.459732,1.481293 0.880005,2.480011c0.304977,0.724731 0.668198,1.472107 0.972,2.279999c0.313004,0.832397 0.557693,1.715195 0.692001,2.639999c0.13884,0.956024 0.149475,1.454941 0.217499,2.474991c0.035004,0.524979 0.166672,2.160492 0.238495,2.722336c0.146149,1.143204 0.247391,1.717453 0.360001,2.290665c0.224838,1.144424 0.504852,2.263245 0.839996,3.344009c0.167465,0.540054 0.353134,1.079849 0.76001,2.178665c0.211441,0.570999 0.441025,1.156937 0.919998,2.402664c0.255219,0.663788 0.786102,2.057953 1.058655,2.776001c0.274796,0.723953 0.549103,1.44809 0.822006,2.166c0.268417,0.706085 0.785065,2.05835 1.031326,2.693665c0.23645,0.610016 0.694244,1.767715 0.921341,2.322662c0.223587,0.546387 0.677383,1.625961 1.166672,2.708344c0.251434,0.556198 0.788467,1.686981 1.069321,2.258667c0.282806,0.575668 0.566528,1.15358 1.165344,2.290665c0.590652,1.121582 0.896179,1.663895 1.198669,2.198669c0.595108,1.052109 0.898788,1.565216 1.199997,2.074661c0.597595,1.010757 1.197449,2.012207 1.802658,3.011993c0.305054,0.503952 0.610626,1.014496 1.269333,2.034668c0.338242,0.523834 0.686829,1.057785 1.461334,2.130676c0.403381,0.558792 1.272629,1.680145 1.728012,2.237335c0.455627,0.557495 0.919739,1.102432 1.390488,1.628998c0.461365,0.516068 1.369308,1.479889 2.261505,2.310989c0.419357,0.390656 1.243988,1.094727 1.639999,1.424011c0.758057,0.630325 1.825882,1.531754 2.165329,1.832001c0.677765,0.599503 1.363129,1.220169 2.136002,1.799988c0.829224,0.622086 1.299927,0.916153 2.307831,1.491013c0.519379,0.296234 1.051346,0.581863 2.136658,1.094666c0.530853,0.250824 2.055359,0.879837 2.53418,1.043655c0.921204,0.315155 1.851532,0.557327 2.329163,0.661667c1.532104,0.334686 2.101563,0.411697 2.693512,0.509003c1.251068,0.205673 1.906372,0.300873 2.575989,0.400009c0.681396,0.100876 1.371887,0.200928 2.768005,0.399994c1.399872,0.1996 2.099731,0.297455 2.799988,0.389328c0.699768,0.091797 1.399628,0.178146 2.100006,0.25351c0.699646,0.075287 2.800018,0.238861 3.501343,0.273163c0.703003,0.034378 1.409332,0.058762 2.119507,0.084c0.715149,0.025421 1.436523,0.048035 2.16449,0.084c1.481812,0.073227 2.236816,0.131744 3.776337,0.268661c0.785248,0.069839 1.579865,0.148758 2.38501,0.222c0.81485,0.074112 1.639038,0.155563 3.319977,0.258667c0.854248,0.052399 1.717224,0.0849 2.585999,0.109512c0.872589,0.024734 1.747314,0.03833 2.622009,0.046494c0.87265,0.008148 1.741333,0.009995 3.458679,0.010666c0.84549,0.00032 1.68399,0 2.518494,0c0.833496,0 1.669006,0 2.509491,0c0.848511,0 1.708008,0 3.472015,0c0.909332,0 1.834656,0 2.772003,0c0.945313,0 1.894653,0 2.843994,0c0.945313,0 1.88266,0 3.717316,0c0.89035,0 1.762665,0 2.619019,0c0.842316,0 1.672668,0 2.492981,0c0.812347,0 1.618683,0 3.221344,0c0.799652,0 1.597321,0 2.390991,0c0.787689,0 1.567352,0 2.337006,0c0.75766,0 1.501343,0 2.93866,0c0.690338,0 1.362671,0 2.019012,0c0.642334,0 1.272675,0 1.893005,0c0.612335,0 1.218658,0 2.421326,0c0.59967,0 1.197327,0 1.790985,0c0.587677,0 1.167358,0 1.73703,0c1.101318,0 2.138641,0 3.103973,0c0.917358,0 1.368011,0 2.273346,0c1.428009,0 1.936829,0 2.986511,0c0.526825,0 1.5495,0.000076 2.484161,0c1.116486,-0.000092 2.086853,0.130905 2.824005,-0.285339c0.689087,-0.389099 1.383087,-1.191544 1.678833,-2.035995c0.288452,-0.823578 0.572784,-1.648285 1.141998,-2.199493c0.825439,-0.799332 1.239502,-1.485992 1.458313,-2.020844c0.347748,-0.849991 0.597382,-1.767181 0.942169,-2.658325c0.23465,-0.606461 0.899719,-1.809067 1.349335,-2.405334c0.48819,-0.647446 1.061279,-1.330948 1.338348,-1.723343c0.927216,-1.313156 1.197815,-1.853195 1.488312,-2.409988c0.301147,-0.577164 0.866821,-1.800552 1.130676,-2.432007c0.263489,-0.6306 0.52417,-1.256119 0.93866,-2.496002c0.38681,-1.157059 0.527527,-1.723633 0.833344,-2.8125c0.150421,-0.535568 0.268402,-1.081512 0.833344,-2.6875c0.196747,-0.559311 0.426208,-1.121597 0.927979,-2.258667c0.254578,-0.576874 0.526031,-1.148392 1.056,-2.290665c0.517975,-1.116425 0.772308,-1.658447 1.225525,-2.744827c0.226746,-0.543533 0.451141,-1.096451 0.852661,-2.263336c0.210999,-0.61319 0.609131,-1.941223 0.804321,-2.661499c0.203705,-0.751709 0.399323,-1.533127 0.589508,-2.337006c0.193542,-0.81813 0.377808,-1.647324 0.553497,-2.481003c0.174988,-0.830338 0.493408,-2.462463 0.635651,-3.253494c0.139008,-0.772995 0.266693,-1.532623 0.385529,-2.281494c0.117462,-0.740143 0.226837,-1.475784 0.331482,-2.209503c0.104706,-0.734283 0.305634,-2.218353 0.404327,-2.973495c0.099976,-0.764847 0.198212,-1.539703 0.28952,-2.325012c0.092377,-0.794708 0.178558,-1.599625 0.253479,-2.414993c0.075775,-0.824646 0.194672,-2.504791 0.23584,-3.359665c0.041534,-0.862473 0.069702,-1.731308 0.096008,-2.604004c0.026367,-0.874634 0.048584,-1.74939 0.078003,-2.621994c0.029297,-0.868744 0.10968,-2.586288 0.168671,-3.431168c0.058411,-0.836472 0.130035,-1.664444 0.203979,-2.485504c0.073425,-0.815292 0.151215,-1.625168 0.222015,-2.431503c0.070526,-0.802994 0.19046,-2.404251 0.231171,-3.20433c0.040619,-0.798615 0.067291,-1.595589 0.08548,-2.389496c0.018097,-0.789772 0.026855,-1.574661 0.031525,-2.3535c0.004639,-0.771828 0.005493,-2.290504 0.00415,-3.035667c-0.001312,-0.736168 -0.004578,-1.464417 -0.020996,-2.185501c-0.016266,-0.715271 -0.043579,-1.425789 -0.092987,-2.1315c-0.049286,-0.70369 -0.210602,-2.105873 -0.328522,-2.804169c-0.118073,-0.699135 -0.414978,-2.079826 -0.578003,-2.758667c-0.161011,-0.670502 -0.332397,-1.326973 -0.49649,-1.971001c-0.465332,-1.826485 -0.598206,-2.398773 -0.730011,-2.951828c-0.251801,-1.056541 -0.495331,-2.055519 -0.636658,-2.530838c-0.408936,-1.375366 -0.769806,-2.23436 -0.962677,-2.652c-0.384521,-0.832657 -0.826141,-1.64312 -1.319977,-2.435997c-0.502106,-0.806175 -1.047455,-1.579048 -1.572021,-2.328003c-0.491455,-0.701691 -1.114929,-1.631119 -1.451477,-2.15316c-0.552155,-0.856468 -1.108856,-1.530319 -1.851501,-2.018837c-0.627136,-0.412544 -1.644806,-0.978172 -2.173004,-1.325333c-0.781189,-0.513451 -1.598816,-1.215714 -2.264496,-1.633003c-0.797699,-0.500046 -1.562378,-0.528023 -2.6875,-0.541664c-0.78598,-0.009529 -1.618927,0.033562 -2.666687,-0.166664c-0.724701,-0.138489 -1.373077,-0.495735 -2.588318,-0.711838c-0.81662,-0.145218 -1.424988,-0.116165 -2.744995,-0.121498c-0.718689,-0.002907 -1.46933,0 -2.244019,0c-0.790649,0 -1.98938,-0.005829 -2.789337,0.004501c-0.800079,0.010338 -1.603516,0.019096 -2.799988,0.162163c-0.804352,0.096176 -1.611755,0.264267 -2.436005,0.444c-0.850494,0.185448 -1.72934,0.3955 -2.64801,0.588005c-0.940002,0.196983 -1.4133,0.296852 -2.363312,0.44416c-1.382538,0.214371 -2.268707,0.274307 -2.700012,0.309006c-0.852692,0.068604 -1.716003,0.102348 -3.019318,0.3815c-0.925262,0.198181 -1.387299,0.364922 -2.3125,0.708328c-0.462555,0.171684 -1.365784,0.532516 -2.577667,1.158173c-0.733368,0.378624 -1.380524,0.779579 -1.97702,1.142998c-1.044373,0.636284 -1.755432,0.992538 -2.564819,1.541168c-0.827759,0.561096 -1.385864,1.110474 -1.916016,1.631996c-0.735687,0.72374 -1.327087,1.341812 -1.780823,2.136665c-0.38504,0.674492 -0.686493,1.721489 -0.704498,2.668671c-0.016235,0.85318 -0.001434,1.795998 0,2.488495c0.002014,0.960846 -0.025085,1.756325 0.256012,2.592834c0.314117,0.934792 0.802734,1.516449 1.327332,2.118172c0.569061,0.652702 1.582825,1.646309 1.938477,2.000832c0.743347,0.741005 1.131836,1.128838 1.960846,1.924995c0.434235,0.417015 0.881287,0.8489 1.850677,1.720001c1.031494,0.92688 1.586517,1.390236 2.160004,1.858665c0.586456,0.479027 1.195526,0.955338 1.829987,1.422005c0.645508,0.474808 2.005524,1.393219 2.719666,1.831169c0.723206,0.44352 1.468689,0.869133 2.229004,1.2855c0.766998,0.420029 1.548096,0.827728 2.337006,1.231499c0.79245,0.405579 2.390686,1.205093 3.191162,1.604332c0.800842,0.399429 1.60318,0.798073 2.410492,1.189499c0.809021,0.392242 1.623413,0.77887 2.446503,1.153503c0.826233,0.376068 2.507355,1.095818 3.364655,1.435829c0.864075,0.342705 1.743225,0.671776 2.635529,0.996002c0.904022,0.328476 1.825012,0.65152 2.761475,0.977997c0.952881,0.332199 2.914825,1.013123 3.924011,1.368668c1.026794,0.361771 2.066864,0.731705 3.1185,1.104004c1.059387,0.375031 2.123413,0.750961 3.190491,1.121994c1.064941,0.3703 3.180573,1.088898 4.226837,1.431168c1.036377,0.339035 2.067902,0.666794 3.096008,0.985504c1.024567,0.317612 2.050079,0.627258 3.078003,0.931503c1.030762,0.305084 3.113525,0.906128 4.168823,1.20433c1.063385,0.300476 2.134979,0.598267 3.214508,0.889496c1.084137,0.292465 2.173737,0.578308 3.268494,0.8535c1.095917,0.275482 3.294434,0.795273 4.395508,1.035507c1.098969,0.239777 2.199036,0.464813 3.299988,0.674988c1.099091,0.209824 2.199219,0.404877 3.300018,0.585007c1.099182,0.179871 3.299469,0.498932 4.399994,0.640335c1.099518,0.141266 2.19986,0.269653 3.299988,0.395996c1.099884,0.126328 2.200256,0.248703 3.300018,0.378006c1.10022,0.129364 3.300568,0.410019 4.399811,0.568665c1.099426,0.158676 2.195892,0.330032 3.28952,0.503998c1.090027,0.173386 2.174438,0.350754 3.253479,0.522003c1.071625,0.170074 3.189941,0.490341 4.235687,0.630997c1.035583,0.139297 2.063812,0.264633 3.08548,0.375c1.014679,0.109604 2.024933,0.204865 3.031525,0.285004c1.002777,0.079834 3.004303,0.199448 4.00415,0.240158c0.997498,0.040619 1.991272,0.067276 2.979004,0.08551c0.979614,0.018082 1.949341,0.026794 2.907013,0.031494c0.943665,0.004623 2.780975,0.004501 3.671143,0.004501c0.871185,0 1.724335,0 2.560516,0c0.82016,0 1.625336,0 2.416504,0c0.778168,0 2.2995,0 3.044495,0c0.734985,0 1.459991,0 2.174988,0c0.705017,0 1.399994,0 2.085022,0c0.674988,0 1.994995,0 2.640137,0c0.636169,0 1.264343,0 1.885529,0c0.615143,0 1.225311,0 1.831482,0c0.60318,0 1.804504,0 2.404175,0c0.597656,0 1.191315,0 1.778992,0c0.579681,0 1.149353,0 1.707001,0c0.543671,0 1.580994,0.000519 2.07135,-0.000168c0.472321,-0.000656 0.92868,-0.002197 1.371002,-0.010498c0.430359,-0.008087 0.850861,-0.021637 1.26297,-0.046494c0.406586,-0.024521 1.209595,-0.105515 1.608856,-0.164169c0.399445,-0.05867 0.795898,-0.130005 1.189484,-0.20401c0.390076,-0.073349 0.774445,-0.150635 1.153503,-0.222c0.371582,-0.069962 1.090088,-0.189438 1.435669,-0.231323c0.335785,-0.040695 0.664276,-0.069427 0.985504,-0.096008c0.315094,-0.026077 0.625519,-0.048538 0.931488,-0.078003c0.303406,-0.029221 0.905273,-0.110046 1.204346,-0.168655c0.299622,-0.058716 0.596039,-0.129913 0.889496,-0.20401c0.290192,-0.073257 0.574402,-0.150375 0.853516,-0.222c0.271545,-0.069687 0.789917,-0.18927 1.035828,-0.231323c0.236816,-0.040497 0.468567,-0.06955 0.695984,-0.096008c0.22525,-0.026199 0.915955,-0.078735 1.909332,-0.309326c0.822266,-0.190857 1.622528,-0.487823 2.630676,-0.630676c0.869171,-0.123154 1.686401,-0.053452 2.485321,-0.095993c0.802368,-0.042725 1.808838,-0.326828 2.600006,-0.693832c0.809692,-0.37561 1.614319,-0.81044 2.285339,-1.095505c0.990845,-0.420929 1.829529,-0.702286 2.419159,-0.842834c1.185455,-0.282578 2.105835,-0.331314 2.731506,-0.346497c1.330322,-0.032272 2.049469,-0.004395 2.799988,-0.021332c0.774902,-0.017487 1.569519,-0.04184 2.764008,-0.210831c0.803436,-0.113678 1.601471,-0.29303 2.399994,-0.483002c1.202301,-0.286026 1.999176,-0.493546 2.789368,-0.695496c0.775146,-0.198105 1.528015,-0.390671 2.589172,-0.700012c0.666016,-0.194153 1.611084,-0.4991 2.220154,-0.699997c1.203247,-0.396881 1.803162,-0.625092 2.758484,-0.842834c1.001648,-0.228302 1.724731,-0.285751 2.45752,-0.321167c1.074707,-0.051926 2.052429,-0.014465 2.870972,-0.040497c0.906433,-0.028824 1.911865,-0.286652 2.514343,-0.495499c0.995972,-0.345215 1.788818,-0.481995 2.833313,-0.5c0.79187,-0.013641 1.650696,0 2.514038,0c1.016663,0 1.921936,-0.188858 2.752625,0.221497c0.690613,0.341171 1.351257,1.151199 1.900024,1.945175c0.443359,0.641449 0.806702,1.431335 1.200012,2.234665c0.406982,0.831268 0.822144,1.757492 1.095459,2.564835c0.200073,0.591034 0.387756,1.246506 0.537842,2.367157c0.111511,0.83252 0.137207,1.727859 0.156006,2.652008c0.00946,0.466431 0.010681,1.847992 0.010681,2.729324c0,0.849335 0,1.674667 0,2.484009c0,1.201492 0,2.005829 0,2.822159c0,0.836334 0,2.145844 0,2.600998c0,0.944336 0,1.940674 0,2.460846c0,1.089325 0,2.250656 0,2.860168c0,0.626495 0,1.918488 0,2.577988c0,0.664505 0.000488,1.331009 0,3.3125c-0.000183,0.64534 0.002441,1.282745 -0.008972,1.914001c-0.022583,1.252899 -0.056274,1.878494 -0.105347,2.505341c-0.0495,0.631912 -0.320923,2.570267 -0.457703,3.231323c-0.138733,0.670395 -0.303711,1.343231 -0.490479,2.016006c-0.187866,0.676651 -0.367065,1.360626 -1.104187,3.333328c-0.242859,0.649933 -0.514954,1.284286 -0.790466,1.914001c-0.275146,0.628967 -0.561523,1.253677 -1.147339,2.505341c-0.295715,0.631836 -0.897034,1.913315 -1.195496,2.568665c-0.301514,0.661972 -0.600403,1.331161 -0.900024,2.003998c-0.300354,0.6745 -0.597961,1.350235 -0.899963,2.022003c-0.894043,1.988693 -1.197815,2.632309 -1.501343,3.267334c-0.300781,0.629288 -0.606323,1.25087 -0.919495,1.864502c-0.312195,0.61171 -0.953552,1.82579 -1.645874,3.020828c-0.349304,0.602905 -0.714783,1.199768 -1.090454,1.791c-0.375,0.590118 -1.14917,1.740097 -1.547363,2.294662c-0.392578,0.546753 -1.18988,1.585632 -1.595642,2.071838c-0.793518,0.950836 -1.210754,1.402283 -1.620667,1.863327c-0.836853,0.941238 -1.275757,1.423141 -2.145874,2.479172c-0.460632,0.559097 -0.918945,1.150726 -1.385986,1.757996c-0.474304,0.61673 -0.946533,1.242615 -1.421997,1.865997c-0.471863,0.618622 -0.924866,1.237335 -1.858643,2.376007c-0.867554,1.057922 -1.311035,1.535751 -1.741333,2.00267c-0.422424,0.458374 -1.276733,1.342255 -1.709351,1.778656c-0.880127,0.887894 -1.800598,1.803421 -2.273163,2.271347c-0.478119,0.473404 -0.962219,0.948837 -1.453522,1.421997c-0.49234,0.474167 -1.987244,1.860992 -2.488983,2.303665c-0.495636,0.437317 -0.989746,0.861877 -1.958679,1.679993c-0.468903,0.39592 -0.936462,0.769424 -2.208313,1.875c-0.393341,0.341919 -1.123657,1.009338 -1.8125,1.645844c-0.335571,0.310089 -0.991455,0.933563 -2.042358,1.820663c-0.359772,0.303696 -1.108154,0.898117 -1.88916,1.464172c-0.390717,0.283173 -1.583984,1.078262 -2.389313,1.551987c-0.794861,0.46756 -1.204987,0.675308 -2,1.136673c-1.207733,0.700882 -1.599518,0.971283 -2.427002,1.509003c-0.896393,0.582489 -1.385925,0.890228 -1.916016,1.199997c-0.565765,0.330612 -1.854004,1.011246 -2.585327,1.359665c-0.775177,0.369308 -1.595459,0.734131 -2.445007,1.104004c-0.867096,0.377518 -1.746704,0.749222 -2.625,1.121994c-0.868347,0.368561 -2.536652,1.082306 -3.315826,1.431503c-0.747406,0.334961 -1.46402,0.668182 -2.152496,1.0065c-0.673157,0.330795 -1.329529,0.670715 -1.972504,1.024506c-0.643768,0.354233 -1.930145,1.119278 -2.582153,1.53299c-0.665436,0.422226 -1.332886,0.864731 -2.004028,1.318512c-0.676208,0.457199 -1.349731,0.923386 -2.021973,1.390488c-0.669098,0.464905 -1.984863,1.383194 -2.63269,1.827332c-0.645508,0.442535 -1.301147,0.884964 -1.97998,1.327515c-0.704437,0.459244 -1.450836,0.93071 -2.25,1.417496c-0.854034,0.520203 -2.787415,1.647095 -3.88385,2.261505c-1.174072,0.657928 -2.4263,1.340332 -3.751495,2.036987c-1.380341,0.725647 -2.81839,1.456757 -4.309509,2.181c-1.523499,0.73999 -4.673767,2.174103 -6.286835,2.852661c-1.613678,0.678802 -3.233215,1.320374 -4.844971,1.929016c-1.585022,0.598541 -3.144012,1.157043 -4.665009,1.677002c-1.46582,0.501099 -4.212891,1.378113 -5.476501,1.751648c-1.188538,0.351349 -2.317413,0.663391 -3.394501,0.942017c-1.029999,0.266449 -2.02713,0.505219 -2.998505,0.725983c-0.952637,0.216492 -2.845154,0.619598 -3.802338,0.818176c-0.977478,0.202789 -1.987091,0.407349 -3.040497,0.610504c-1.106232,0.213348 -2.277985,0.429138 -3.526489,0.646484c-1.334137,0.232269 -4.308929,0.713226 -5.965851,0.96402c-1.753754,0.265442 -3.584229,0.530151 -5.468994,0.793488c-1.915863,0.2677 -3.842224,0.527283 -5.756989,0.775513c-1.879913,0.243713 -5.450592,0.680359 -7.103851,0.867004c-1.569427,0.177185 -3.073425,0.335358 -4.528503,0.481476c-1.422577,0.142853 -2.830627,0.276398 -4.240479,0.409515c-1.428802,0.134888 -4.411652,0.417084 -5.9935,0.573151c-1.634155,0.161224 -3.302124,0.330261 -4.986023,0.504028c-1.682098,0.173553 -3.344086,0.348297 -4.967987,0.521973c-1.568085,0.167694 -4.464111,0.484833 -5.760681,0.631165c-1.196777,0.135071 -2.303467,0.263153 -3.329987,0.385529c-0.956787,0.114044 -1.853455,0.224274 -2.700012,0.331482c-0.806763,0.102173 -2.340179,0.303253 -3.085999,0.404846c-0.742157,0.101074 -1.48642,0.205811 -2.237976,0.320984c-0.766479,0.117462 -1.552704,0.246765 -2.364014,0.393005c-0.844727,0.152283 -2.652954,0.514618 -3.625153,0.728668c-1.013184,0.223083 -2.053558,0.466431 -3.109497,0.729004c-1.064423,0.264679 -2.123108,0.542938 -3.163513,0.837006c-1.016937,0.287445 -2.923523,0.882324 -3.791168,1.190826c-0.817596,0.29071 -1.579987,0.589325 -2.291992,0.889496c-0.673248,0.283844 -1.302948,0.571259 -1.895996,0.853516c-0.56424,0.268555 -1.608337,0.789856 -2.097839,1.035645c-0.469147,0.235565 -0.917084,0.46167 -1.339508,0.685516c-0.401215,0.212616 -0.77771,0.420227 -1.123505,0.6315c-0.324768,0.198425 -0.886139,0.598022 -1.11615,0.804321c-0.215118,0.192963 -0.400482,0.392944 -0.567017,0.589508c-0.158691,0.187286 -0.300201,0.375549 -0.440979,0.553497c-0.136627,0.172699 -0.419189,0.49469 -0.577667,0.635834c-0.158966,0.141602 -0.330536,0.269806 -0.504028,0.395996c-0.173828,0.126465 -0.350983,0.248413 -0.521973,0.377991c-0.17038,0.12912 -0.490936,0.409546 -0.631165,0.569c-0.141266,0.160675 -0.268677,0.337219 -0.385529,0.525024c-0.119629,0.192261 -0.228424,0.398499 -0.331482,0.61499c-0.106415,0.223511 -0.306,0.704407 -0.40451,0.959839c-0.101532,0.263245 -0.200928,0.535309 -0.299988,0.814484c-0.100952,0.284515 -0.20047,0.574524 -0.300018,0.8685c-0.100464,0.296692 -0.30072,0.895264 -0.399811,1.195831c-0.099579,0.302094 -0.198578,0.607819 -0.28952,0.921021c-0.092773,0.319458 -0.179352,0.649628 -0.253479,0.992981c-0.076721,0.355347 -0.196869,1.118378 -0.235352,1.52951c-0.040527,0.432922 -0.0625,0.892944 -0.064484,1.3815c-0.002106,0.520538 0.018585,1.076447 0.061493,1.669495c0.045959,0.63504 0.208771,2.039337 0.324158,2.811829c0.121643,0.81427 0.266479,1.657562 0.429016,2.52002c0.164734,0.874268 0.344299,1.747742 0.536987,2.609985c0.188721,0.844452 0.583069,2.43222 0.791656,3.156006c0.197205,0.684204 0.405823,1.330353 0.642029,1.937988c0.229523,0.590454 0.488831,1.15863 0.78598,1.70401c0.300201,0.550995 1.027679,1.639954 1.45816,2.186829c0.450562,0.572388 0.954712,1.144928 1.510498,1.714508c0.580261,0.594666 1.2164,1.185059 1.906525,1.768494c0.718994,0.607819 2.322144,1.806366 3.203156,2.394836c0.908234,0.606628 1.859589,1.192505 2.841003,1.757996c0.987976,0.569275 1.992218,1.108734 3.002991,1.614014c0.994751,0.497284 2.944458,1.373352 3.884674,1.742645c0.905426,0.355652 1.794434,0.666351 2.666992,0.942017c0.852936,0.26947 1.69989,0.506683 2.541016,0.725983c0.836273,0.218018 2.522583,0.61969 3.378143,0.817841c0.865784,0.200531 1.743622,0.398987 2.635529,0.589508c0.904449,0.193207 1.824402,0.379517 2.761475,0.553497c0.952271,0.176788 2.913727,0.496155 3.924347,0.635651c1.028076,0.141907 2.075226,0.268158 3.139496,0.385529c1.079407,0.119019 2.1745,0.227386 3.283508,0.331482c1.121643,0.105286 3.40033,0.306458 4.559814,0.404327c1.19516,0.100861 2.452301,0.201172 3.798004,0.28952c1.458984,0.095764 3.05838,0.181671 4.824005,0.253479c1.957031,0.07962 6.55191,0.19693 9.230988,0.235504c2.912933,0.041962 6.023987,0.065094 9.297028,0.075012c3.398987,0.010284 6.888031,0.004913 10.431,-0.015015c3.561005,-0.02005 10.59314,-0.096771 14.001831,-0.160828c3.34198,-0.062805 6.640198,-0.146729 9.916504,-0.277496c3.279449,-0.13089 6.583984,-0.307007 9.934479,-0.547485c3.424347,-0.245758 10.575684,-0.933868 14.33783,-1.381012c3.87265,-0.460297 7.814301,-0.989532 11.792999,-1.555511c3.985992,-0.567017 7.939636,-1.165924 11.82901,-1.771484c3.793243,-0.590576 10.947357,-1.742188 14.248016,-2.279999c3.107361,-0.506317 6.027008,-0.986877 8.76297,-1.456512c2.561981,-0.439758 4.954071,-0.865265 7.179016,-1.294495c2.070953,-0.399536 5.760895,-1.197937 7.388824,-1.613342c1.506592,-0.38446 2.891571,-0.783112 4.165497,-1.189484c1.185608,-0.378204 2.281555,-0.76709 3.301514,-1.153503c0.962585,-0.364685 2.734985,-1.089355 3.569824,-1.435669c0.8078,-0.335083 1.589294,-0.662903 2.346008,-0.985504c0.735962,-0.313751 1.451477,-0.623596 2.14801,-0.931488c0.682068,-0.301483 2.004883,-0.902557 2.648987,-1.204498c0.635925,-0.298096 1.260986,-0.598022 1.875,-0.900024c0.605957,-0.298035 1.20105,-0.597931 1.784973,-0.899994c0.57605,-0.297974 1.69635,-0.897614 2.239502,-1.199829c0.532837,-0.296478 1.049072,-0.592194 1.543518,-0.889496c0.476501,-0.286499 0.927368,-0.569702 1.34552,-0.853516c0.393677,-0.267181 1.073181,-0.78302 1.346985,-1.035828c0.249817,-0.230682 0.461914,-0.461945 0.631531,-0.695984c0.158997,-0.219391 0.28479,-0.446869 0.379456,-0.678009c0.093323,-0.227905 0.21344,-0.713165 0.253662,-0.968658c0.04126,-0.261932 0.067383,-0.531128 0.08551,-0.804016c0.01825,-0.274475 0.026794,-0.549286 0.031494,-0.821991c0.004639,-0.268646 0.015076,-0.786407 0.000671,-1.035492c-0.015503,-0.267395 -0.081177,-0.584381 -0.241516,-0.958496c-0.210144,-0.490356 -0.569885,-1.092377 -1.069458,-1.840515c-0.631897,-0.94632 -2.509888,-3.458221 -3.778503,-5.074341c-1.450256,-1.847534 -3.079468,-3.862457 -4.859985,-5.998505c-1.868958,-2.242096 -3.824219,-4.524719 -5.850037,-6.790497c-2.014343,-2.25293 -6.005188,-6.447235 -7.945129,-8.287994c-1.823242,-1.730011 -3.60376,-3.284393 -5.335541,-4.669495c-1.626129,-1.300598 -3.209625,-2.451355 -4.741486,-3.463501c-1.438751,-0.950653 -4.165283,-2.518494 -5.444489,-3.161499c-1.20163,-0.604034 -2.354218,-1.120056 -3.450012,-1.562988c-1.02475,-0.414215 -1.997131,-0.76062 -2.910004,-1.059021c-0.847412,-0.277008 -2.368958,-0.720673 -3.043152,-0.907166c-0.631226,-0.174622 -1.240356,-0.333466 -1.849518,-0.46048c-0.621277,-0.129547 -1.28009,-0.235352 -1.9935,-0.316498c-0.783997,-0.089203 -2.650208,-0.20697 -3.762329,-0.244171c-1.222595,-0.040894 -2.537659,-0.060059 -3.925507,-0.054016c-1.441895,0.006287 -2.919189,0.038605 -4.411499,0.108002c-1.490448,0.069305 -4.386963,0.304626 -5.755005,0.489166c-1.316132,0.177551 -2.577942,0.402496 -3.781494,0.685516c-1.165649,0.274109 -2.284088,0.602386 -3.349487,0.991486c-1.042938,0.38089 -3.00946,1.305206 -3.93335,1.843323c-0.91507,0.53299 -1.784485,1.117462 -2.614502,1.726501c-0.813629,0.597015 -1.580261,1.216034 -2.308472,1.834503c-0.702301,0.596466 -1.983185,1.745361 -2.556183,2.292847c-0.552185,0.527588 -1.081696,1.073944 -1.541992,1.697998c-0.487213,0.660553 -0.931671,1.445068 -1.326019,2.363983c-0.447601,1.04303 -1.241791,3.726471 -1.616333,5.39035c-0.414764,1.84256 -0.780945,3.842926 -1.095001,5.954987c-0.323364,2.174774 -0.580139,4.384064 -0.734985,6.585022c-0.151001,2.146271 -0.173828,6.142273 0.047485,7.902985c0.204285,1.625214 0.578827,3.135437 1.20752,4.46402c0.620026,1.310272 1.521088,2.514893 2.647491,3.58197c1.212585,1.148743 4.471588,3.226013 6.459991,4.239166c2.150787,1.095917 4.494171,2.118805 6.952515,3.109528c2.506744,1.010254 5.052948,1.941711 7.582489,2.803497c2.450867,0.834961 6.991882,2.221283 9.000854,2.752167c1.818451,0.48053 3.482971,0.861908 5.009979,1.154999c1.400177,0.268738 2.7052,0.464783 3.929993,0.61499c1.162079,0.142517 3.389923,0.345917 4.491669,0.444824c1.111603,0.099792 2.243073,0.199158 3.404999,0.28952c1.201416,0.093414 2.453033,0.179962 3.765015,0.253479c1.381348,0.077423 4.394867,0.195831 6.041321,0.235687c1.724213,0.041718 3.504639,0.067383 5.319,0.08548c1.826324,0.018219 3.64267,0.026794 5.427032,0.031525c1.730286,0.004578 4.940979,0.004486 6.383301,0.004486c1.336365,0 2.580688,0 3.747009,0c1.102356,0 2.154663,0 3.171021,0c0.994324,0 2.972961,0 3.981323,0c1.018311,0 2.036682,0 3.044983,0c0.988342,0 1.946655,0 2.86499,0c0.868347,0 2.415039,-0.00058 3.075867,0.000153c0.585815,0.000671 1.101685,0.001556 1.55249,0.010529c0.390869,0.007782 0.727173,0.019257 1.012512,0.046478c0.241394,0.023041 0.613281,0.097076 0.742004,0.164673c0.1073,0.056305 0.187012,0.140808 0.193481,0.235504c0.007263,0.106049 -0.0672,0.232849 -0.184509,0.361511c-0.148987,0.163391 -0.64032,0.519562 -0.972168,0.723999c-0.377136,0.23233 -0.803833,0.469635 -1.265991,0.718475c-0.487122,0.262329 -0.996704,0.525208 -1.518005,0.790497c-0.524048,0.266693 -1.553894,0.781738 -2.046143,1.027527c-0.485046,0.242188 -0.976074,0.486664 -1.486511,0.737976c-0.541809,0.266754 -1.128906,0.552856 -1.774536,0.864014c-0.715698,0.34494 -2.413147,1.152649 -3.416992,1.626343c-1.104187,0.521027 -2.300842,1.082916 -3.580505,1.682983c-1.353333,0.634613 -2.771973,1.298706 -4.24646,1.989014c-1.521545,0.712341 -4.669983,2.185944 -6.27887,2.941986c-1.625793,0.763977 -3.264221,1.536743 -4.907959,2.325012c-1.65094,0.791718 -3.301483,1.59436 -4.944031,2.414978c-1.640137,0.819397 -4.875916,2.497742 -6.460815,3.359009c-1.565735,0.850861 -3.092621,1.708832 -4.576508,2.562012c-1.441742,0.828949 -2.824768,1.64447 -4.144501,2.436005c-1.254852,0.752625 -3.525177,2.145294 -4.53067,2.774475c-0.931732,0.583038 -1.798889,1.135101 -2.611481,1.669525c-0.779663,0.512756 -1.532227,1.023895 -2.269501,1.543488c-0.74408,0.524384 -2.280701,1.657623 -3.096191,2.278656c-0.845947,0.644226 -1.701416,1.309662 -2.552979,1.984528c-0.839783,0.665527 -1.648163,1.317932 -2.408997,1.948486c-0.708313,0.587036 -1.893402,1.608673 -2.338684,2.03183c-0.367004,0.348785 -0.654053,0.646118 -0.855011,0.908997c-0.160461,0.209869 -0.2659,0.398499 -0.314972,0.567017c-0.042938,0.147522 -0.045013,0.440979 -0.045013,0.595642c0,0.162689 0,0.33136 0,0.504028c0,0.174652 0,0.349304 0,0.521973c0,0.168671 0,0.486023 0,0.631348c0,0.137329 0,0.268677 0,0.395996c0,0.125336 0,0.250671 0,0.377991c0,0.131348 0.001404,0.414001 -0.000488,0.568848c-0.002014,0.163849 -0.007629,0.336304 -0.031525,0.514496c-0.024902,0.185669 -0.067444,0.377686 -0.139496,0.568512c-0.075653,0.200378 -0.3172,0.605499 -0.496643,0.796326c-0.204987,0.217987 -0.494263,0.435211 -0.874512,0.652496c-0.468842,0.267883 -1.076813,0.537994 -1.828491,0.832489c-0.904938,0.354553 -3.292999,1.155548 -4.800507,1.62085c-1.692261,0.522339 -3.547729,1.064789 -5.535004,1.619995c-2.082642,0.581848 -4.237305,1.157227 -6.434998,1.709991c-2.202393,0.553925 -6.521637,1.5466 -8.587341,1.955505c-1.993225,0.394562 -3.938141,0.730042 -5.846985,1.0065c-1.880005,0.272278 -3.753204,0.491119 -5.631012,0.66449c-1.892975,0.174774 -5.792603,0.412933 -7.821655,0.494019c-2.080322,0.08316 -4.205261,0.137238 -6.365997,0.181488c-2.188599,0.0448 -4.397339,0.075531 -6.618011,0.109497c-2.22467,0.034027 -6.654083,0.114716 -8.843994,0.173004c-2.170105,0.057739 -4.319977,0.127716 -6.450012,0.193512c-2.109955,0.065186 -4.19986,0.129303 -6.269989,0.175507c-2.049896,0.045746 -6.090088,0.086639 -8.079681,0.066498c-1.967773,-0.019928 -3.911743,-0.069366 -5.828979,-0.150024c-1.890137,-0.079498 -3.750214,-0.188629 -5.577026,-0.329987c-1.794525,-0.138855 -5.272522,-0.498077 -6.950165,-0.719666c-1.635742,-0.216034 -3.220245,-0.460205 -4.747498,-0.729004c-1.471069,-0.258911 -2.875763,-0.538147 -4.207489,-0.837006c-1.261566,-0.283112 -3.53598,-0.879547 -4.538513,-1.190643c-0.925323,-0.28714 -1.768982,-0.583466 -2.537994,-0.879028c-0.708801,-0.27243 -1.353363,-0.546173 -1.944,-0.806976c-0.545288,-0.240784 -1.510986,-0.68335 -1.947479,-0.871521c-0.407562,-0.17569 -0.792877,-0.333252 -1.156525,-0.481476c-0.345367,-0.140778 -0.67688,-0.273956 -0.994476,-0.409515c-0.310364,-0.132477 -0.915466,-0.414734 -1.213013,-0.573151c-0.298523,-0.158936 -0.589172,-0.327881 -0.8685,-0.504028c-0.271637,-0.171295 -0.526917,-0.345367 -0.760498,-0.521973c-0.218292,-0.165039 -0.577301,-0.480835 -0.707001,-0.631165c-0.113739,-0.131805 -0.199524,-0.261139 -0.2565,-0.385529c-0.051544,-0.112549 -0.080292,-0.22464 -0.094513,-0.331482c-0.013672,-0.102722 -0.014008,-0.304504 -0.013336,-0.40451c0.000671,-0.100006 0.00235,-0.200134 0.010529,-0.299988c0.008179,-0.100189 0.022034,-0.200775 0.046478,-0.300018c0.024841,-0.100861 0.10553,-0.302277 0.164673,-0.399994c0.062103,-0.10257 0.140839,-0.203308 0.235504,-0.299988c0.101532,-0.103699 0.222626,-0.203796 0.361511,-0.300018c0.15033,-0.104156 0.51297,-0.303253 0.724152,-0.399994c0.226074,-0.103546 0.470612,-0.201935 0.729004,-0.299988c0.26889,-0.102051 0.549011,-0.200928 0.837006,-0.300018c0.293335,-0.100922 0.890839,-0.300446 1.190979,-0.399811c0.299866,-0.099304 0.599426,-0.19751 0.900024,-0.28952c0.299438,-0.091644 0.599121,-0.177948 0.899994,-0.253479c0.299194,-0.075104 0.899353,-0.195129 1.2005,-0.235687c0.302917,-0.040802 0.612793,-0.067596 0.931488,-0.08548c0.330322,-0.018555 0.675964,-0.026947 1.03952,-0.031525c0.38446,-0.004852 1.228485,-0.004486 1.694641,-0.004486c0.503174,0 1.050354,0 1.648499,0c0.656189,0 1.37735,0 2.170502,0c0.872192,0 2.8815,0 4.028503,0c1.229004,0 2.522003,0 3.860992,0c1.367004,0 2.744019,0 4.113007,0c1.343018,0 3.878998,0 5.04068,0c1.091675,0 2.123322,0 3.10498,0c0.941681,0 1.853333,0 2.745026,0c0.881653,0 2.654999,0 3.563995,0c0.923004,0 1.854004,0 2.786987,0c0.929016,0 1.847992,0 2.751007,0c0.881012,0 2.553009,0 3.333679,0c0.744659,0 1.457306,0 2.141998,0c0.660645,0 1.301331,0 1.925995,0c0.612671,0 1.817993,0 2.417664,0c0.597656,0 1.191315,0 1.778992,0c0.579681,0 1.149353,0 1.707001,0c0.543671,0 1.580994,0 2.071167,0c0.471161,0 0.924347,0 1.360504,0c0.420166,0 0.825348,0 1.216492,0c0.378174,0 1.099518,-0.000549 1.444519,0.000153c0.334991,0.000671 0.660065,0.002197 0.974976,0.010529c0.305084,0.008087 0.600342,0.021332 0.88501,0.046478c0.27536,0.024323 0.796387,0.103729 1.039673,0.164337c0.2341,0.058319 0.453766,0.129669 0.653992,0.214508c0.187103,0.079285 0.35434,0.16745 0.492004,0.268494c0.123505,0.090637 0.29007,0.291626 0.311157,0.395325c0.019714,0.097046 -0.00589,0.201447 -0.064484,0.28952c-0.064758,0.097321 -0.170471,0.181702 -0.298492,0.253479c-0.142609,0.079956 -0.504364,0.19635 -0.715332,0.235687c-0.227753,0.04248 -0.475433,0.067749 -0.739502,0.08548c-0.279633,0.018768 -0.574646,0.026917 -0.883514,0.031525c-0.321808,0.004791 -1.000488,0.004486 -1.355652,0.004486c-0.36618,0 -0.744354,0 -1.135498,0c-0.405182,0 -0.825348,0 -1.261505,0c-0.453186,0 -1.41452,0 -1.924835,0c-0.532349,0 -1.088684,0 -1.671021,0c-0.610321,0 -1.250641,0 -1.922974,0c-0.70636,0 -2.229004,0 -3.050171,0c-0.868164,0 -1.790344,0 -2.773499,0c-1.051178,0 -2.177338,0 -3.385498,0c-1.29718,0 -4.186523,0 -5.788177,0c-1.691681,0 -3.453339,0 -5.265015,0c-1.841644,0 -3.693329,0 -5.534973,0c-1.811676,0 -5.265015,0 -6.871521,0c-1.525482,0 -2.979004,0 -4.369507,0c-1.336487,0 -2.627991,0 -3.883484,0c-1.228516,0 -3.640503,-0.000519 -4.840332,0.000153c-1.198853,0.000671 -2.39566,0.002319 -3.589508,0.010529c-1.18985,0.008179 -2.374725,0.021729 -3.553497,0.046478c-1.171936,0.024597 -3.490753,0.104553 -4.637329,0.16452c-1.148102,0.060028 -2.307953,0.136322 -3.490509,0.224976c-1.217102,0.091248 -2.478851,0.198059 -3.796509,0.315002c-1.38501,0.122925 -4.399506,0.404572 -6.045471,0.559662c-1.722046,0.162262 -3.496063,0.330566 -5.298004,0.504028c-1.806091,0.173859 -3.592163,0.3479 -5.334015,0.521973c-1.674103,0.167297 -4.72229,0.483307 -6.053986,0.631165c-1.204285,0.133698 -2.292389,0.261475 -3.276001,0.385529c-0.892334,0.112549 -1.704407,0.222656 -2.447998,0.331482c-0.688385,0.100739 -1.944336,0.302521 -2.533508,0.40451c-0.566833,0.098114 -1.107635,0.196777 -1.6185,0.299988c-0.480103,0.096985 -0.925323,0.194794 -1.330505,0.300018c-0.36676,0.095245 -0.967194,0.288086 -1.186676,0.40033c-0.181366,0.092743 -0.324585,0.196503 -0.385498,0.320984c-0.055084,0.11261 -0.038788,0.256531 0.028503,0.393005c0.081329,0.164948 0.41037,0.524536 0.636169,0.728668c0.258972,0.234131 0.571625,0.479614 0.942017,0.729004c0.41449,0.279053 0.895813,0.559967 1.445984,0.837006c0.606842,0.305542 2.05423,0.901764 2.896332,1.190826c0.904419,0.310455 1.874695,0.6026 2.89502,0.889496c1.056335,0.297028 2.145569,0.579132 3.254974,0.853516c1.117249,0.276306 3.344299,0.793579 4.437164,1.035828c1.084503,0.240387 2.175537,0.472656 3.286499,0.695984c1.141357,0.229462 2.328613,0.454803 3.574524,0.678009c1.315399,0.235657 4.212952,0.717377 5.817322,0.968842c1.706299,0.267426 3.509247,0.538483 5.401489,0.814484c1.973419,0.287842 4.022308,0.577271 6.139526,0.8685c2.17746,0.29953 6.688141,0.898224 9.0065,1.19516c2.345612,0.300415 4.70755,0.594818 7.073975,0.879028c2.357574,0.283142 4.695496,0.553894 7.002014,0.806976c2.261505,0.248169 6.605499,0.68634 8.665497,0.871338c1.976044,0.17746 3.866821,0.331146 5.668488,0.471008c1.70932,0.13269 3.324066,0.249878 4.840515,0.363007c1.415558,0.105591 3.931946,0.30423 5.027161,0.408813c0.990112,0.094543 1.877838,0.191681 2.666992,0.28952c0.696136,0.086304 1.301819,0.171509 1.821014,0.253479c0.43808,0.069183 1.083527,0.18808 1.298828,0.235504c0.151245,0.033295 0.278595,0.036194 0.277496,0.075012c-0.000427,0.015015 -0.073608,0.001678 -0.172485,-0.015015c-0.134583,-0.022705 -0.488556,-0.101166 -0.699493,-0.161316c-0.245331,-0.069946 -0.53421,-0.169189 -0.876007,-0.309021c-0.414795,-0.169708 -0.906586,-0.39743 -1.488007,-0.686981c-0.691101,-0.344177 -2.426331,-1.276855 -3.494843,-1.876495c-1.218475,-0.683777 -2.583435,-1.469971 -4.102478,-2.356506c-1.682831,-0.982117 -3.528076,-2.073639 -5.542511,-3.274506c-2.192352,-1.306946 -7.118073,-4.272522 -9.858154,-5.930511c-2.905304,-1.757965 -5.946472,-3.603424 -9.10202,-5.510986c-3.239777,-1.958466 -6.53894,-3.947968 -9.876007,-5.942993c-3.340302,-1.996979 -9.943817,-5.89624 -13.16864,-7.762329c-3.180573,-1.840485 -6.363708,-3.653107 -9.582001,-5.460022c-3.277008,-1.839874 -6.658844,-3.711212 -10.176025,-5.639984c-3.680054,-2.018097 -11.686768,-6.362244 -16.065308,-8.72583c-4.600098,-2.483185 -9.379425,-5.054016 -14.292023,-7.6875c-4.996033,-2.678223 -10.033142,-5.369568 -15.065979,-8.047516c-4.977814,-2.648682 -14.596268,-7.735809 -19.153015,-10.127838c-4.363327,-2.290497 -8.539352,-4.469879 -12.524994,-6.54599c-3.794388,-1.976501 -7.400635,-3.849457 -10.815002,-5.627991c-3.225601,-1.680206 -9.107529,-4.759247 -11.761002,-6.169678c-2.474365,-1.315216 -4.769821,-2.550385 -6.888,-3.71701c-1.959549,-1.079254 -3.757599,-2.091675 -5.393997,-3.050995c-1.499191,-0.878876 -4.07045,-2.480469 -5.148499,-3.218323c-0.973267,-0.666138 -1.827637,-1.297791 -2.569504,-1.895996c-0.664368,-0.535736 -1.235657,-1.042664 -1.723495,-1.518005c-0.435455,-0.424316 -1.125046,-1.190247 -1.400833,-1.529175c-0.246445,-0.302856 -0.454239,-0.580597 -0.621002,-0.83548c-0.145264,-0.222046 -0.258224,-0.422028 -0.333008,-0.601501c-0.062775,-0.150635 -0.113922,-0.397583 -0.088165,-0.485016c0.023102,-0.07843 0.097946,-0.141632 0.202499,-0.181488c0.136932,-0.052185 0.326309,-0.078735 0.5625,-0.109497c0.290421,-0.037842 1.057556,-0.118134 1.541336,-0.173187c0.546875,-0.062225 1.149536,-0.132568 1.801498,-0.203979c0.693695,-0.075989 1.422394,-0.152252 2.179504,-0.222015c0.777557,-0.071655 2.368256,-0.190552 3.169006,-0.231171c0.803284,-0.040741 1.612915,-0.067444 2.431488,-0.08548c0.830444,-0.018311 1.675995,-0.026886 2.539505,-0.031525c0.884506,-0.00473 2.7285,-0.004486 3.69516,-0.004486c1.006668,0 2.063339,0 3.180008,0c1.186661,0 2.453339,0 3.809998,0c1.456665,0 4.710007,0 6.520828,0c1.915833,0 3.911667,0 5.962509,0c2.080826,0 4.166672,0 6.232498,0c2.020828,0 5.827499,0 7.569504,0c1.634003,0 3.171997,0 4.625992,0c1.382004,0 2.70401,0 3.977997,0c1.238007,0 3.654007,0 4.853348,0c1.195328,0 2.38266,0 3.557999,0c1.159317,0 2.29866,0 3.413986,0c1.087341,0 3.162018,0 4.142334,0c0.942352,0 1.848663,0 2.721008,0c0.840332,0 1.650665,0 2.433014,0c0.756317,0 2.198975,0 2.888489,0c0.666504,0 1.307007,0 1.918488,0c0.579498,0 1.124023,0 1.630524,0c0.465485,0 1.261475,0 1.586975,0c0.278503,0 0.513,0 0.706512,0c0.155487,0 0.276001,0 0.364502,0c0.059509,0 0.103455,0.000427 0.093506,-0.000671c-0.030182,-0.003357 -0.081146,-0.014343 -0.150024,-0.041992c-0.091675,-0.036774 -0.202881,-0.097046 -0.329987,-0.186005c-0.153687,-0.107574 -0.513123,-0.435028 -0.720154,-0.657318c-0.234741,-0.252045 -0.483582,-0.543365 -0.760498,-0.858002c-0.299347,-0.340088 -0.621368,-0.702423 -0.976501,-1.074005c-0.374023,-0.391327 -1.21344,-1.189148 -1.685516,-1.582855c-0.495728,-0.413422 -1.041748,-0.827545 -1.638,-1.252472c-0.64151,-0.457214 -1.349426,-0.930603 -2.123993,-1.432526c-0.841217,-0.545135 -2.77121,-1.74881 -3.864685,-2.421326c-1.167786,-0.718231 -2.399597,-1.469238 -3.677979,-2.251495c-1.312958,-0.803406 -2.646667,-1.620514 -3.984009,-2.449493c-1.332001,-0.825684 -3.913818,-2.455688 -5.138657,-3.24884c-1.188446,-0.769592 -2.342072,-1.530579 -3.480011,-2.270996c-1.125412,-0.732269 -2.249222,-1.457275 -3.389999,-2.162994c-1.152557,-0.713013 -3.564987,-2.118195 -4.84816,-2.811188c-1.34201,-0.724792 -2.780151,-1.460663 -4.324509,-2.236481c-1.665833,-0.836838 -3.481461,-1.729065 -5.458496,-2.704514c-2.160309,-1.065872 -7.106842,-3.520813 -9.918335,-4.934494c-3.011276,-1.51413 -6.173584,-3.11615 -9.448502,-4.772995c-3.342758,-1.691162 -6.709167,-3.394958 -10.060501,-5.07901c-3.287369,-1.651917 -9.50827,-4.743591 -12.370667,-6.134323c-2.691162,-1.307541 -5.246017,-2.525574 -7.6875,-3.671997c-2.346954,-1.102051 -4.632355,-2.156799 -6.877502,-3.186005c-2.228195,-1.021439 -6.742859,-3.077194 -9.068329,-4.141006c-2.361206,-1.08017 -4.731735,-2.167847 -7.087494,-3.248993c-2.315903,-1.062851 -4.566422,-2.096558 -6.727509,-3.087006c-2.045578,-0.937515 -5.691956,-2.602188 -7.25032,-3.307495c-1.384369,-0.626556 -2.613861,-1.178589 -3.703506,-1.66951c-0.968002,-0.436127 -1.831833,-0.825455 -2.605499,-1.183487c-0.70491,-0.326202 -1.968643,-0.93634 -2.556168,-1.240341c-0.569763,-0.294815 -1.114014,-0.590958 -1.628998,-0.889496c-0.492279,-0.28537 -0.953079,-0.569016 -1.376999,-0.8535c-0.397247,-0.266586 -1.077164,-0.7836 -1.351501,-1.035507c-0.249268,-0.228882 -0.459488,-0.454758 -0.6315,-0.674988c-0.15654,-0.200424 -0.281616,-0.396973 -0.379501,-0.585007c-0.089737,-0.172379 -0.211929,-0.493973 -0.253494,-0.639999c-0.038177,-0.134125 -0.064758,-0.259476 -0.075012,-0.375c-0.009293,-0.104706 -0.00621,-0.201324 0.014999,-0.285004c0.019424,-0.07663 0.101059,-0.200302 0.160172,-0.240158c0.062515,-0.04216 0.143524,-0.068237 0.235504,-0.08551c0.104431,-0.019608 0.225266,-0.026993 0.361496,-0.031494c0.153122,-0.005051 0.514496,-0.004501 0.725006,-0.004501c0.23349,0 0.492996,0 0.781494,0c0.320496,0 0.675995,0 1.069504,0c0.434494,0 1.438492,0 2.012329,0c0.616837,0 1.269669,0 1.951508,0c0.703827,0 1.422653,0 2.14949,0c0.727829,0 2.158508,0 2.848831,0c0.672333,0 1.328674,0 1.971008,0c0.630325,0 1.250671,0 1.862991,0c0.606339,0 1.809006,0.000488 2.409836,-0.000168c0.605835,-0.000671 1.22168,-0.002487 1.852509,-0.010498c0.650864,-0.008255 1.326752,-0.022491 2.032501,-0.046494c0.740936,-0.025192 2.347717,-0.105988 3.220993,-0.164505c0.914764,-0.06131 1.861389,-0.135712 2.830505,-0.225006c0.983902,-0.090652 1.972687,-0.194244 2.956497,-0.315002c0.972214,-0.119324 2.840897,-0.397202 3.719162,-0.559662c0.839066,-0.155212 1.632889,-0.324722 2.378998,-0.503998c0.701187,-0.168472 1.351059,-0.343491 1.947006,-0.522003c0.545303,-0.163345 1.463516,-0.479721 1.831833,-0.631165c0.318085,-0.130798 0.585739,-0.257187 0.802505,-0.385498c0.184494,-0.109207 0.332504,-0.219299 0.44249,-0.331497c0.096222,-0.09816 0.223236,-0.302155 0.262177,-0.404999c0.038437,-0.101501 0.059601,-0.21312 0.054001,-0.331512c-0.006195,-0.131241 -0.044342,-0.278351 -0.108002,-0.439499c-0.074081,-0.187531 -0.320236,-0.63089 -0.488678,-0.892822c-0.188477,-0.293076 -0.407761,-0.605331 -0.653992,-0.932999c-0.26091,-0.347198 -0.545258,-0.702133 -0.852005,-1.059006c-0.314529,-0.365936 -0.991135,-1.082077 -1.351166,-1.422165c-0.361359,-0.341339 -0.740128,-0.66951 -1.135498,-0.985504c-0.400986,-0.32048 -0.82193,-0.630249 -1.261505,-0.931503c-0.449738,-0.308228 -1.412247,-0.908325 -1.925323,-1.205154c-0.533554,-0.30867 -1.100571,-0.619385 -1.702499,-0.942001c-0.639679,-0.34285 -1.326523,-0.70163 -2.0625,-1.086014c-0.79068,-0.412964 -2.557983,-1.337097 -3.540176,-1.856659c-1.039169,-0.549713 -2.119431,-1.125122 -3.227997,-1.716003c-1.122772,-0.59845 -2.245102,-1.197754 -3.354004,-1.787994c-1.080444,-0.575089 -3.101456,-1.64502 -4.01799,-2.124664c-0.851517,-0.445618 -1.645981,-0.857407 -2.388,-1.242004c-0.695969,-0.360733 -1.35257,-0.700272 -1.973999,-1.026001c-0.594543,-0.311646 -1.72319,-0.915863 -2.266998,-1.218002c-0.536179,-0.297897 -1.06131,-0.597778 -1.575012,-0.899994c-0.506271,-0.297836 -1.001404,-0.597748 -1.485001,-0.900009c-0.476395,-0.29776 -1.396988,-0.897064 -1.839828,-1.200165c-0.435822,-0.298294 -0.859222,-0.599625 -1.264496,-0.910492c-0.398392,-0.305588 -0.780273,-0.619095 -1.138504,-0.946503c-0.352448,-0.322128 -0.993637,-1.003006 -1.275497,-1.364166c-0.278183,-0.356445 -0.527893,-0.726578 -0.75,-1.104004c-0.217834,-0.370163 -0.407791,-0.74588 -0.570007,-1.121994c-0.157623,-0.365463 -0.398331,-1.083939 -0.480164,-1.431503c-0.079285,-0.3367 -0.132339,-0.672226 -0.160492,-1.0065c-0.028214,-0.334915 -0.031494,-0.676208 -0.01651,-1.024506c0.015488,-0.359833 0.095093,-1.124268 0.156174,-1.533157c0.064011,-0.428558 0.146835,-0.873978 0.266998,-1.32901c0.124817,-0.472656 0.286774,-0.955551 0.500992,-1.436996c0.222733,-0.50058 0.829102,-1.501709 1.217178,-1.990829c0.404968,-0.510422 0.870117,-1.004013 1.372498,-1.489502c0.515884,-0.49855 1.068573,-0.980392 1.642502,-1.453506c0.579422,-0.477646 1.775101,-1.393738 2.377502,-1.835495c0.597626,-0.438248 1.197647,-0.863419 1.799988,-1.274994c0.597702,-0.408401 1.197739,-0.803574 1.800003,-1.184998c0.597763,-0.378571 1.797806,-1.098846 2.40184,-1.44101c0.610626,-0.345901 1.24588,-0.689392 1.915497,-1.037994c0.709961,-0.369614 1.477554,-0.754242 2.311493,-1.164001c0.90863,-0.446457 3.003922,-1.453217 4.207672,-2.026001c1.301544,-0.619324 2.691422,-1.275955 4.1595,-1.962006c1.532227,-0.716034 3.12001,-1.450897 4.753494,-2.195999c1.663834,-0.758957 5.049072,-2.271271 6.748505,-3.012497c1.684586,-0.734741 3.347733,-1.447617 4.973999,-2.143494c1.577744,-0.67511 3.096985,-1.321732 4.542007,-1.945511c1.36293,-0.588348 3.789352,-1.659271 4.827667,-2.147324c0.934723,-0.439362 1.768433,-0.852112 2.50499,-1.252502c0.666397,-0.362259 1.260208,-0.716339 1.785004,-1.072495c0.488251,-0.331345 1.341446,-1.020554 1.724838,-1.381836c0.375259,-0.353638 0.721069,-0.717888 1.03949,-1.083c0.305084,-0.349831 0.57933,-0.695221 0.823502,-1.029007c0.226181,-0.309196 0.595337,-0.859276 0.713333,-1.104164c0.10321,-0.214226 0.155579,-0.443703 0.088501,-0.661499c-0.080521,-0.261414 -0.317108,-0.541634 -0.64949,-0.859497c-0.426117,-0.407516 -1.735229,-1.412971 -2.614334,-2.05584c-1.007095,-0.736465 -2.130249,-1.532684 -3.337509,-2.381996c-1.264328,-0.889458 -2.566299,-1.795204 -3.877502,-2.706001c-1.295456,-0.899857 -3.742798,-2.597557 -4.848328,-3.368332c-1.021118,-0.711922 -1.960831,-1.369881 -2.827499,-1.971001c-0.795059,-0.551445 -1.524414,-1.054039 -2.197495,-1.502998c-0.6138,-0.409416 -1.699173,-1.094772 -2.183502,-1.370003c-0.444016,-0.252327 -0.864319,-0.469406 -1.263,-0.663002c-0.37944,-0.184258 -0.752197,-0.351547 -1.119003,-0.518997c-0.369217,-0.168549 -1.139023,-0.533081 -1.545837,-0.746498c-0.423996,-0.222435 -0.852478,-0.462273 -1.276489,-0.718498c-0.421692,-0.254829 -0.827499,-0.517227 -1.204498,-0.790504c-0.357529,-0.259163 -0.95462,-0.771713 -1.169342,-1.026497c-0.191086,-0.226738 -0.332901,-0.454826 -0.427505,-0.675003c-0.086288,-0.200821 -0.133606,-0.398979 -0.157486,-0.584999c-0.022369,-0.174286 -0.024643,-0.495026 -0.021835,-0.640335c0.002655,-0.137383 0.009583,-0.270409 0.041992,-0.395996c0.032913,-0.127586 0.093719,-0.256081 0.186005,-0.378006c0.104431,-0.13797 0.43396,-0.419922 0.658493,-0.568993c0.259018,-0.171959 0.570007,-0.345932 0.931503,-0.525002c0.407242,-0.201729 0.873642,-0.405838 1.399506,-0.615005c0.58197,-0.231483 1.946701,-0.710632 2.732834,-0.959663c0.848419,-0.268761 1.761047,-0.53714 2.733002,-0.804001c1.022659,-0.280785 2.097107,-0.555824 3.218994,-0.821999c1.160767,-0.275398 3.595825,-0.792137 4.862167,-1.031502c1.294998,-0.244781 2.624023,-0.474815 3.985504,-0.706497c1.394836,-0.237358 2.825714,-0.473763 4.291489,-0.724503c1.503571,-0.257202 4.625412,-0.81884 6.24234,-1.132668c1.645767,-0.31942 3.303909,-0.65715 4.963501,-0.997498c1.648071,-0.33799 3.270203,-0.675598 4.855499,-0.997498c1.533386,-0.311356 4.395447,-0.868393 5.703003,-1.098167c1.224533,-0.215187 2.378555,-0.400215 3.469498,-0.567001c1.036087,-0.158401 2.028137,-0.300354 2.983505,-0.441002c0.928635,-0.136711 2.741302,-0.418327 3.640823,-0.577995c0.903183,-0.160316 1.809479,-0.336021 2.721008,-0.525002c0.921173,-0.190979 1.851395,-0.39682 2.792999,-0.615005c0.957077,-0.221771 2.920609,-0.698692 3.925995,-0.960663c1.010666,-0.263344 2.008728,-0.537209 2.960999,-0.867004c0.913864,-0.31649 1.766541,-0.661682 2.492996,-1.100998c0.665588,-0.402504 1.610031,-1.420258 1.761673,-2.016167c0.152206,-0.598137 0.071487,-1.264145 -0.132004,-1.9095c-0.213913,-0.678413 -0.571732,-1.33625 -0.996002,-1.963501c-0.426804,-0.630997 -1.414001,-1.735809 -1.927994,-2.191498c-0.487183,-0.431908 -0.991653,-0.799133 -1.5,-1.112999c-0.492249,-0.303925 -0.996521,-0.559479 -1.5,-0.789001c-0.496689,-0.226425 -1.499924,-0.627174 -1.999329,-0.826668c-0.495255,-0.197838 -0.982376,-0.392082 -1.458008,-0.578995c-0.459045,-0.180397 -0.898071,-0.350922 -1.313995,-0.507004c-0.38678,-0.145142 -1.061157,-0.383659 -1.342499,-0.471497c-0.242798,-0.075806 -0.452942,-0.133224 -0.6315,-0.181503c-0.150452,-0.04068 -0.277328,-0.072159 -0.379501,-0.109497c-0.085724,-0.031326 -0.213943,-0.114456 -0.253342,-0.173172c-0.039673,-0.059128 -0.062607,-0.130821 -0.064499,-0.203995c-0.001938,-0.074821 0.018372,-0.153244 0.061508,-0.222c0.046158,-0.07357 0.212082,-0.19236 0.324158,-0.231171c0.125381,-0.043419 0.27092,-0.067825 0.429001,-0.085495c0.169296,-0.018921 0.349289,-0.026886 0.537003,-0.031502c0.193634,-0.004761 0.591003,-0.004501 0.790833,-0.004501c0.198837,0 0.395676,0 0.589508,0c0.189835,0 0.374664,0 0.553497,0c0.171829,0 0.490494,0 0.636169,0c0.139664,0 0.277328,0 0.416992,0c0.145676,0 0.301331,0 0.471008,0c0.187668,0 0.632996,0 0.897324,0c0.290344,0 0.602676,0 0.932999,0c0.344345,0 0.698669,0 1.059006,0c0.362335,0 1.076996,0 1.422333,0c0.337341,0 0.668671,0 0.996002,0c0.325333,0 0.650665,0 0.977997,0c0.331329,0 1.014008,0 1.368332,0c0.360336,0 0.722672,0 1.083008,0c0.354324,0 0.698669,0 1.028992,0c0.312332,0 0.867004,0 1.102676,0c0.209656,0 0.397324,0 0.567001,0c0.155655,0 0.301331,0 0.440994,0l0.137665,0" id="svg_4" stroke-linecap="null" stroke-linejoin="null" stroke-dasharray="null" stroke-width="5" stroke="#000000" fill="none"/>
 </g>
</svg>